G75*
%MOIN*%
%OFA0B0*%
%FSLAX25Y25*%
%IPPOS*%
%LPD*%
%AMOC8*
5,1,8,0,0,1.08239X$1,22.5*
%
%ADD10C,0.00000*%
%ADD11C,0.00500*%
%ADD12C,0.00300*%
%ADD13C,0.00400*%
D10*
X0001000Y0001000D02*
X0001000Y0059973D01*
X0075803Y0059973D01*
X0075803Y0001000D01*
X0001000Y0001000D01*
D11*
X0029200Y0007000D02*
X0029200Y0023732D01*
X0048885Y0023732D01*
X0048885Y0007000D01*
X0029200Y0007000D01*
X0027417Y0043126D02*
X0027421Y0043426D01*
X0027432Y0043725D01*
X0027450Y0044024D01*
X0027476Y0044322D01*
X0027509Y0044620D01*
X0027549Y0044917D01*
X0027597Y0045213D01*
X0027652Y0045507D01*
X0027714Y0045800D01*
X0027783Y0046092D01*
X0027859Y0046381D01*
X0027943Y0046669D01*
X0028033Y0046954D01*
X0028130Y0047238D01*
X0028235Y0047519D01*
X0028346Y0047797D01*
X0028464Y0048072D01*
X0028589Y0048344D01*
X0028720Y0048614D01*
X0028858Y0048879D01*
X0029003Y0049142D01*
X0029153Y0049401D01*
X0029311Y0049656D01*
X0029474Y0049907D01*
X0029643Y0050154D01*
X0029819Y0050397D01*
X0030000Y0050635D01*
X0030187Y0050869D01*
X0030380Y0051098D01*
X0030579Y0051322D01*
X0030783Y0051542D01*
X0030992Y0051756D01*
X0031206Y0051965D01*
X0031426Y0052169D01*
X0031650Y0052368D01*
X0031879Y0052561D01*
X0032113Y0052748D01*
X0032351Y0052929D01*
X0032594Y0053105D01*
X0032841Y0053274D01*
X0033092Y0053437D01*
X0033347Y0053595D01*
X0033606Y0053745D01*
X0033869Y0053890D01*
X0034134Y0054028D01*
X0034404Y0054159D01*
X0034676Y0054284D01*
X0034951Y0054402D01*
X0035229Y0054513D01*
X0035510Y0054618D01*
X0035794Y0054715D01*
X0036079Y0054805D01*
X0036367Y0054889D01*
X0036656Y0054965D01*
X0036948Y0055034D01*
X0037241Y0055096D01*
X0037535Y0055151D01*
X0037831Y0055199D01*
X0038128Y0055239D01*
X0038426Y0055272D01*
X0038724Y0055298D01*
X0039023Y0055316D01*
X0039322Y0055327D01*
X0039622Y0055331D01*
X0039922Y0055327D01*
X0040221Y0055316D01*
X0040520Y0055298D01*
X0040818Y0055272D01*
X0041116Y0055239D01*
X0041413Y0055199D01*
X0041709Y0055151D01*
X0042003Y0055096D01*
X0042296Y0055034D01*
X0042588Y0054965D01*
X0042877Y0054889D01*
X0043165Y0054805D01*
X0043450Y0054715D01*
X0043734Y0054618D01*
X0044015Y0054513D01*
X0044293Y0054402D01*
X0044568Y0054284D01*
X0044840Y0054159D01*
X0045110Y0054028D01*
X0045375Y0053890D01*
X0045638Y0053745D01*
X0045897Y0053595D01*
X0046152Y0053437D01*
X0046403Y0053274D01*
X0046650Y0053105D01*
X0046893Y0052929D01*
X0047131Y0052748D01*
X0047365Y0052561D01*
X0047594Y0052368D01*
X0047818Y0052169D01*
X0048038Y0051965D01*
X0048252Y0051756D01*
X0048461Y0051542D01*
X0048665Y0051322D01*
X0048864Y0051098D01*
X0049057Y0050869D01*
X0049244Y0050635D01*
X0049425Y0050397D01*
X0049601Y0050154D01*
X0049770Y0049907D01*
X0049933Y0049656D01*
X0050091Y0049401D01*
X0050241Y0049142D01*
X0050386Y0048879D01*
X0050524Y0048614D01*
X0050655Y0048344D01*
X0050780Y0048072D01*
X0050898Y0047797D01*
X0051009Y0047519D01*
X0051114Y0047238D01*
X0051211Y0046954D01*
X0051301Y0046669D01*
X0051385Y0046381D01*
X0051461Y0046092D01*
X0051530Y0045800D01*
X0051592Y0045507D01*
X0051647Y0045213D01*
X0051695Y0044917D01*
X0051735Y0044620D01*
X0051768Y0044322D01*
X0051794Y0044024D01*
X0051812Y0043725D01*
X0051823Y0043426D01*
X0051827Y0043126D01*
X0051823Y0042826D01*
X0051812Y0042527D01*
X0051794Y0042228D01*
X0051768Y0041930D01*
X0051735Y0041632D01*
X0051695Y0041335D01*
X0051647Y0041039D01*
X0051592Y0040745D01*
X0051530Y0040452D01*
X0051461Y0040160D01*
X0051385Y0039871D01*
X0051301Y0039583D01*
X0051211Y0039298D01*
X0051114Y0039014D01*
X0051009Y0038733D01*
X0050898Y0038455D01*
X0050780Y0038180D01*
X0050655Y0037908D01*
X0050524Y0037638D01*
X0050386Y0037373D01*
X0050241Y0037110D01*
X0050091Y0036851D01*
X0049933Y0036596D01*
X0049770Y0036345D01*
X0049601Y0036098D01*
X0049425Y0035855D01*
X0049244Y0035617D01*
X0049057Y0035383D01*
X0048864Y0035154D01*
X0048665Y0034930D01*
X0048461Y0034710D01*
X0048252Y0034496D01*
X0048038Y0034287D01*
X0047818Y0034083D01*
X0047594Y0033884D01*
X0047365Y0033691D01*
X0047131Y0033504D01*
X0046893Y0033323D01*
X0046650Y0033147D01*
X0046403Y0032978D01*
X0046152Y0032815D01*
X0045897Y0032657D01*
X0045638Y0032507D01*
X0045375Y0032362D01*
X0045110Y0032224D01*
X0044840Y0032093D01*
X0044568Y0031968D01*
X0044293Y0031850D01*
X0044015Y0031739D01*
X0043734Y0031634D01*
X0043450Y0031537D01*
X0043165Y0031447D01*
X0042877Y0031363D01*
X0042588Y0031287D01*
X0042296Y0031218D01*
X0042003Y0031156D01*
X0041709Y0031101D01*
X0041413Y0031053D01*
X0041116Y0031013D01*
X0040818Y0030980D01*
X0040520Y0030954D01*
X0040221Y0030936D01*
X0039922Y0030925D01*
X0039622Y0030921D01*
X0039322Y0030925D01*
X0039023Y0030936D01*
X0038724Y0030954D01*
X0038426Y0030980D01*
X0038128Y0031013D01*
X0037831Y0031053D01*
X0037535Y0031101D01*
X0037241Y0031156D01*
X0036948Y0031218D01*
X0036656Y0031287D01*
X0036367Y0031363D01*
X0036079Y0031447D01*
X0035794Y0031537D01*
X0035510Y0031634D01*
X0035229Y0031739D01*
X0034951Y0031850D01*
X0034676Y0031968D01*
X0034404Y0032093D01*
X0034134Y0032224D01*
X0033869Y0032362D01*
X0033606Y0032507D01*
X0033347Y0032657D01*
X0033092Y0032815D01*
X0032841Y0032978D01*
X0032594Y0033147D01*
X0032351Y0033323D01*
X0032113Y0033504D01*
X0031879Y0033691D01*
X0031650Y0033884D01*
X0031426Y0034083D01*
X0031206Y0034287D01*
X0030992Y0034496D01*
X0030783Y0034710D01*
X0030579Y0034930D01*
X0030380Y0035154D01*
X0030187Y0035383D01*
X0030000Y0035617D01*
X0029819Y0035855D01*
X0029643Y0036098D01*
X0029474Y0036345D01*
X0029311Y0036596D01*
X0029153Y0036851D01*
X0029003Y0037110D01*
X0028858Y0037373D01*
X0028720Y0037638D01*
X0028589Y0037908D01*
X0028464Y0038180D01*
X0028346Y0038455D01*
X0028235Y0038733D01*
X0028130Y0039014D01*
X0028033Y0039298D01*
X0027943Y0039583D01*
X0027859Y0039871D01*
X0027783Y0040160D01*
X0027714Y0040452D01*
X0027652Y0040745D01*
X0027597Y0041039D01*
X0027549Y0041335D01*
X0027509Y0041632D01*
X0027476Y0041930D01*
X0027450Y0042228D01*
X0027432Y0042527D01*
X0027421Y0042826D01*
X0027417Y0043126D01*
D12*
X0027417Y0042339D02*
X0029386Y0043520D01*
X0027417Y0044701D01*
X0036866Y0052969D02*
X0036866Y0054937D01*
X0036866Y0052969D02*
X0042378Y0052969D01*
X0042378Y0054937D01*
X0051827Y0045094D02*
X0050252Y0043520D01*
X0051827Y0042339D01*
D13*
X0051218Y0034245D02*
X0050451Y0033478D01*
X0050451Y0030408D01*
X0051218Y0029641D01*
X0052753Y0029641D01*
X0053520Y0030408D01*
X0055055Y0029641D02*
X0055055Y0034245D01*
X0053520Y0033478D02*
X0052753Y0034245D01*
X0051218Y0034245D01*
X0048916Y0034245D02*
X0045847Y0034245D01*
X0045847Y0029641D01*
X0048916Y0029641D01*
X0047382Y0031943D02*
X0045847Y0031943D01*
X0044313Y0034245D02*
X0041243Y0034245D01*
X0039709Y0034245D02*
X0039709Y0029641D01*
X0042778Y0029641D02*
X0042778Y0034245D01*
X0039709Y0034245D02*
X0038174Y0032710D01*
X0036639Y0034245D01*
X0036639Y0029641D01*
X0035105Y0029641D02*
X0035105Y0032710D01*
X0033570Y0034245D01*
X0032035Y0032710D01*
X0032035Y0029641D01*
X0030501Y0030408D02*
X0029733Y0029641D01*
X0028199Y0029641D01*
X0027431Y0030408D01*
X0029733Y0031943D02*
X0030501Y0031176D01*
X0030501Y0030408D01*
X0029733Y0031943D02*
X0028199Y0031943D01*
X0027431Y0032710D01*
X0027431Y0033478D01*
X0028199Y0034245D01*
X0029733Y0034245D01*
X0030501Y0033478D01*
X0032035Y0031943D02*
X0035105Y0031943D01*
X0055055Y0031943D02*
X0058124Y0031943D01*
X0058124Y0034245D02*
X0058124Y0029641D01*
X0064263Y0030408D02*
X0065030Y0029641D01*
X0066565Y0029641D01*
X0067332Y0030408D01*
X0067332Y0031176D01*
X0066565Y0031943D01*
X0065798Y0031943D01*
X0066565Y0031943D02*
X0067332Y0032710D01*
X0067332Y0033478D01*
X0066565Y0034245D01*
X0065030Y0034245D01*
X0064263Y0033478D01*
X0073471Y0034245D02*
X0073471Y0029641D01*
X0073471Y0031176D02*
X0075773Y0031176D01*
X0076540Y0031943D01*
X0076540Y0033478D01*
X0075773Y0034245D01*
X0073471Y0034245D01*
X0078075Y0034245D02*
X0079609Y0034245D01*
X0078842Y0034245D02*
X0078842Y0029641D01*
X0078075Y0029641D02*
X0079609Y0029641D01*
X0081144Y0029641D02*
X0081144Y0034245D01*
X0084213Y0029641D01*
X0084213Y0034245D01*
X0090352Y0033478D02*
X0090352Y0030408D01*
X0091119Y0029641D01*
X0092654Y0029641D01*
X0093421Y0030408D01*
X0094956Y0030408D02*
X0095723Y0029641D01*
X0097258Y0029641D01*
X0098025Y0030408D01*
X0098025Y0033478D01*
X0097258Y0034245D01*
X0095723Y0034245D01*
X0094956Y0033478D01*
X0094956Y0030408D01*
X0099560Y0029641D02*
X0099560Y0034245D01*
X0102629Y0029641D01*
X0102629Y0034245D01*
X0104164Y0034245D02*
X0107233Y0029641D01*
X0107233Y0034245D01*
X0108767Y0034245D02*
X0108767Y0029641D01*
X0111837Y0029641D01*
X0113371Y0030408D02*
X0114139Y0029641D01*
X0115673Y0029641D01*
X0116441Y0030408D01*
X0113371Y0030408D02*
X0113371Y0033478D01*
X0114139Y0034245D01*
X0115673Y0034245D01*
X0116441Y0033478D01*
X0117975Y0034245D02*
X0121045Y0034245D01*
X0119510Y0034245D02*
X0119510Y0029641D01*
X0122579Y0030408D02*
X0123347Y0029641D01*
X0124881Y0029641D01*
X0125649Y0030408D01*
X0125649Y0033478D01*
X0124881Y0034245D01*
X0123347Y0034245D01*
X0122579Y0033478D01*
X0122579Y0030408D01*
X0127183Y0029641D02*
X0127183Y0034245D01*
X0129485Y0034245D01*
X0130252Y0033478D01*
X0130252Y0031943D01*
X0129485Y0031176D01*
X0127183Y0031176D01*
X0128718Y0031176D02*
X0130252Y0029641D01*
X0111837Y0034245D02*
X0108767Y0034245D01*
X0108767Y0031943D02*
X0110302Y0031943D01*
X0104164Y0029641D02*
X0104164Y0034245D01*
X0093421Y0033478D02*
X0092654Y0034245D01*
X0091119Y0034245D01*
X0090352Y0033478D01*
M02*
