G75*
%MOIN*%
%OFA0B0*%
%FSLAX25Y25*%
%IPPOS*%
%LPD*%
%AMOC8*
5,1,8,0,0,1.08239X$1,22.5*
%
%ADD10C,0.04362*%
%ADD11C,0.00600*%
%ADD12C,0.02781*%
%ADD13C,0.02978*%
D10*
X0040615Y0083975D03*
X0032103Y0090343D03*
X0046353Y0092171D03*
X0069507Y0090270D03*
X0077996Y0083873D03*
X0083763Y0092049D03*
X0104907Y0090270D03*
X0113396Y0083873D03*
X0119163Y0092049D03*
D11*
X0009815Y0097967D02*
X0009815Y0014015D01*
X0141011Y0014015D01*
X0141011Y0097967D01*
X0009815Y0097967D01*
X0009815Y0097500D02*
X0141011Y0097500D01*
X0141011Y0096901D02*
X0009815Y0096901D01*
X0009815Y0096303D02*
X0141011Y0096303D01*
X0141011Y0095704D02*
X0128766Y0095704D01*
X0128664Y0095806D02*
X0126767Y0095806D01*
X0125425Y0094464D01*
X0125425Y0092567D01*
X0126767Y0091225D01*
X0128664Y0091225D01*
X0130006Y0092567D01*
X0130006Y0094464D01*
X0128664Y0095806D01*
X0129365Y0095106D02*
X0141011Y0095106D01*
X0141011Y0094507D02*
X0129963Y0094507D01*
X0130006Y0093909D02*
X0141011Y0093909D01*
X0141011Y0093310D02*
X0130006Y0093310D01*
X0130006Y0092712D02*
X0141011Y0092712D01*
X0141011Y0092113D02*
X0129552Y0092113D01*
X0128954Y0091514D02*
X0141011Y0091514D01*
X0141011Y0090916D02*
X0122028Y0090916D01*
X0122244Y0091436D02*
X0121775Y0090304D01*
X0120908Y0089437D01*
X0119775Y0088968D01*
X0118550Y0088968D01*
X0117417Y0089437D01*
X0116551Y0090304D01*
X0116082Y0091436D01*
X0116082Y0092662D01*
X0116551Y0093794D01*
X0117417Y0094661D01*
X0118550Y0095130D01*
X0119775Y0095130D01*
X0120908Y0094661D01*
X0121775Y0093794D01*
X0122244Y0092662D01*
X0122244Y0091436D01*
X0122244Y0091514D02*
X0126477Y0091514D01*
X0125879Y0092113D02*
X0122244Y0092113D01*
X0122223Y0092712D02*
X0125425Y0092712D01*
X0125425Y0093310D02*
X0121975Y0093310D01*
X0121660Y0093909D02*
X0125425Y0093909D01*
X0125468Y0094507D02*
X0121062Y0094507D01*
X0119834Y0095106D02*
X0126066Y0095106D01*
X0126665Y0095704D02*
X0009815Y0095704D01*
X0009815Y0095106D02*
X0045386Y0095106D01*
X0045740Y0095252D02*
X0044608Y0094783D01*
X0043741Y0093917D01*
X0043272Y0092784D01*
X0043272Y0091558D01*
X0043741Y0090426D01*
X0044608Y0089559D01*
X0045740Y0089090D01*
X0046966Y0089090D01*
X0048098Y0089559D01*
X0048965Y0090426D01*
X0049434Y0091558D01*
X0049434Y0092784D01*
X0048965Y0093917D01*
X0048098Y0094783D01*
X0046966Y0095252D01*
X0045740Y0095252D01*
X0047321Y0095106D02*
X0083091Y0095106D01*
X0083150Y0095130D02*
X0082017Y0094661D01*
X0081151Y0093794D01*
X0080682Y0092662D01*
X0080682Y0091436D01*
X0081151Y0090304D01*
X0082017Y0089437D01*
X0083150Y0088968D01*
X0084375Y0088968D01*
X0085508Y0089437D01*
X0086375Y0090304D01*
X0086844Y0091436D01*
X0086844Y0092662D01*
X0086375Y0093794D01*
X0085508Y0094661D01*
X0084375Y0095130D01*
X0083150Y0095130D01*
X0084434Y0095106D02*
X0118491Y0095106D01*
X0117263Y0094507D02*
X0085662Y0094507D01*
X0086260Y0093909D02*
X0116665Y0093909D01*
X0116350Y0093310D02*
X0106623Y0093310D01*
X0106555Y0093355D02*
X0105922Y0093618D01*
X0105249Y0093751D01*
X0104564Y0093751D01*
X0103891Y0093618D01*
X0103258Y0093355D01*
X0102687Y0092974D01*
X0102307Y0092593D01*
X0104849Y0090677D01*
X0104500Y0090213D01*
X0104964Y0089863D01*
X0105314Y0090327D01*
X0107853Y0088414D01*
X0107991Y0088621D01*
X0108254Y0089255D01*
X0108388Y0089927D01*
X0108388Y0090613D01*
X0108254Y0091286D01*
X0107991Y0091919D01*
X0107611Y0092489D01*
X0107230Y0092870D01*
X0105314Y0090327D01*
X0104849Y0090677D01*
X0106763Y0093216D01*
X0106555Y0093355D01*
X0106382Y0092712D02*
X0107110Y0092712D01*
X0107388Y0092712D02*
X0116102Y0092712D01*
X0116082Y0092113D02*
X0107862Y0092113D01*
X0108159Y0091514D02*
X0116082Y0091514D01*
X0116297Y0090916D02*
X0108327Y0090916D01*
X0108388Y0090317D02*
X0116545Y0090317D01*
X0117135Y0089719D02*
X0108346Y0089719D01*
X0108198Y0089120D02*
X0118181Y0089120D01*
X0120144Y0089120D02*
X0141011Y0089120D01*
X0141011Y0088522D02*
X0107925Y0088522D01*
X0107709Y0088522D02*
X0106744Y0088522D01*
X0106915Y0089120D02*
X0105950Y0089120D01*
X0106121Y0089719D02*
X0105155Y0089719D01*
X0104964Y0089863D02*
X0107507Y0087947D01*
X0107126Y0087566D01*
X0106555Y0087185D01*
X0105922Y0086923D01*
X0105249Y0086789D01*
X0104564Y0086789D01*
X0103891Y0086923D01*
X0103258Y0087185D01*
X0103050Y0087324D01*
X0104964Y0089863D01*
X0104855Y0089719D02*
X0104127Y0089719D01*
X0104500Y0090213D02*
X0102584Y0087670D01*
X0102203Y0088051D01*
X0101822Y0088621D01*
X0101559Y0089255D01*
X0101425Y0089927D01*
X0101425Y0090613D01*
X0101559Y0091286D01*
X0101822Y0091919D01*
X0101960Y0092127D01*
X0104500Y0090213D01*
X0104578Y0090317D02*
X0104361Y0090317D01*
X0104532Y0090916D02*
X0103567Y0090916D01*
X0103738Y0091514D02*
X0102773Y0091514D01*
X0102944Y0092113D02*
X0101978Y0092113D01*
X0101951Y0092113D02*
X0086844Y0092113D01*
X0086844Y0091514D02*
X0101654Y0091514D01*
X0101486Y0090916D02*
X0086628Y0090916D01*
X0086380Y0090317D02*
X0101425Y0090317D01*
X0101467Y0089719D02*
X0085790Y0089719D01*
X0084744Y0089120D02*
X0101615Y0089120D01*
X0101888Y0088522D02*
X0072525Y0088522D01*
X0072591Y0088621D02*
X0072854Y0089255D01*
X0072988Y0089927D01*
X0072988Y0090613D01*
X0072854Y0091286D01*
X0072591Y0091919D01*
X0072211Y0092489D01*
X0071830Y0092870D01*
X0069914Y0090327D01*
X0072453Y0088414D01*
X0072591Y0088621D01*
X0072309Y0088522D02*
X0071344Y0088522D01*
X0071515Y0089120D02*
X0070550Y0089120D01*
X0070721Y0089719D02*
X0069755Y0089719D01*
X0069564Y0089863D02*
X0069914Y0090327D01*
X0069449Y0090677D01*
X0069100Y0090213D01*
X0069564Y0089863D01*
X0072107Y0087947D01*
X0071726Y0087566D01*
X0071155Y0087185D01*
X0070522Y0086923D01*
X0069849Y0086789D01*
X0069164Y0086789D01*
X0068491Y0086923D01*
X0067858Y0087185D01*
X0067650Y0087324D01*
X0069564Y0089863D01*
X0069455Y0089719D02*
X0068727Y0089719D01*
X0069100Y0090213D02*
X0067184Y0087670D01*
X0066803Y0088051D01*
X0066422Y0088621D01*
X0066159Y0089255D01*
X0066025Y0089927D01*
X0066025Y0090613D01*
X0066159Y0091286D01*
X0066422Y0091919D01*
X0066560Y0092127D01*
X0069100Y0090213D01*
X0069178Y0090317D02*
X0068961Y0090317D01*
X0069449Y0090677D02*
X0066907Y0092593D01*
X0067288Y0092974D01*
X0067858Y0093355D01*
X0068491Y0093618D01*
X0069164Y0093751D01*
X0069849Y0093751D01*
X0070522Y0093618D01*
X0071155Y0093355D01*
X0071363Y0093216D01*
X0069449Y0090677D01*
X0069629Y0090916D02*
X0070357Y0090916D01*
X0070080Y0091514D02*
X0070808Y0091514D01*
X0070531Y0092113D02*
X0071259Y0092113D01*
X0070982Y0092712D02*
X0071710Y0092712D01*
X0071988Y0092712D02*
X0080702Y0092712D01*
X0080682Y0092113D02*
X0072462Y0092113D01*
X0072759Y0091514D02*
X0080682Y0091514D01*
X0080897Y0090916D02*
X0072927Y0090916D01*
X0072988Y0090317D02*
X0081145Y0090317D01*
X0081735Y0089719D02*
X0072946Y0089719D01*
X0072798Y0089120D02*
X0082781Y0089120D01*
X0080098Y0086128D02*
X0111294Y0086128D01*
X0111651Y0086485D02*
X0110784Y0085618D01*
X0110315Y0084486D01*
X0110315Y0083260D01*
X0110784Y0082128D01*
X0111651Y0081261D01*
X0112783Y0080792D01*
X0114009Y0080792D01*
X0115141Y0081261D01*
X0116008Y0082128D01*
X0116477Y0083260D01*
X0116477Y0084486D01*
X0116008Y0085618D01*
X0115141Y0086485D01*
X0114009Y0086954D01*
X0112783Y0086954D01*
X0111651Y0086485D01*
X0112234Y0086726D02*
X0079158Y0086726D01*
X0078609Y0086954D02*
X0077383Y0086954D01*
X0076251Y0086485D01*
X0075384Y0085618D01*
X0074915Y0084486D01*
X0074915Y0083260D01*
X0075384Y0082128D01*
X0076251Y0081261D01*
X0077383Y0080792D01*
X0078609Y0080792D01*
X0079741Y0081261D01*
X0080608Y0082128D01*
X0081077Y0083260D01*
X0081077Y0084486D01*
X0080608Y0085618D01*
X0079741Y0086485D01*
X0078609Y0086954D01*
X0076834Y0086726D02*
X0042025Y0086726D01*
X0042360Y0086587D02*
X0041228Y0087056D01*
X0040002Y0087056D01*
X0038870Y0086587D01*
X0038003Y0085721D01*
X0037534Y0084588D01*
X0037534Y0083362D01*
X0038003Y0082230D01*
X0038870Y0081363D01*
X0040002Y0080894D01*
X0041228Y0080894D01*
X0042360Y0081363D01*
X0043227Y0082230D01*
X0043696Y0083362D01*
X0043696Y0084588D01*
X0043227Y0085721D01*
X0042360Y0086587D01*
X0042820Y0086128D02*
X0075894Y0086128D01*
X0075347Y0085529D02*
X0043306Y0085529D01*
X0043554Y0084931D02*
X0075099Y0084931D01*
X0074915Y0084332D02*
X0043696Y0084332D01*
X0043696Y0083734D02*
X0074915Y0083734D01*
X0074967Y0083135D02*
X0043602Y0083135D01*
X0043354Y0082537D02*
X0067588Y0082537D01*
X0067657Y0082606D02*
X0066315Y0081264D01*
X0066315Y0079367D01*
X0067657Y0078025D01*
X0069555Y0078025D01*
X0070897Y0079367D01*
X0070897Y0081264D01*
X0069555Y0082606D01*
X0067657Y0082606D01*
X0066990Y0081938D02*
X0042935Y0081938D01*
X0042303Y0081340D02*
X0066391Y0081340D01*
X0066315Y0080741D02*
X0036406Y0080741D01*
X0036406Y0080143D02*
X0066315Y0080143D01*
X0066315Y0079544D02*
X0035984Y0079544D01*
X0036406Y0079967D02*
X0035064Y0078625D01*
X0033167Y0078625D01*
X0031825Y0079967D01*
X0031825Y0081864D01*
X0033167Y0083206D01*
X0035064Y0083206D01*
X0036406Y0081864D01*
X0036406Y0079967D01*
X0036406Y0081340D02*
X0038927Y0081340D01*
X0038295Y0081938D02*
X0036332Y0081938D01*
X0035733Y0082537D02*
X0037876Y0082537D01*
X0037628Y0083135D02*
X0035135Y0083135D01*
X0033096Y0083135D02*
X0009815Y0083135D01*
X0009815Y0082537D02*
X0032498Y0082537D01*
X0031899Y0081938D02*
X0009815Y0081938D01*
X0009815Y0081340D02*
X0031825Y0081340D01*
X0031825Y0080741D02*
X0009815Y0080741D01*
X0009815Y0080143D02*
X0031825Y0080143D01*
X0032247Y0079544D02*
X0009815Y0079544D01*
X0009815Y0078946D02*
X0032846Y0078946D01*
X0035385Y0078946D02*
X0066736Y0078946D01*
X0067335Y0078347D02*
X0009815Y0078347D01*
X0009815Y0077749D02*
X0115825Y0077749D01*
X0115825Y0078264D02*
X0115825Y0076367D01*
X0117167Y0075025D01*
X0119064Y0075025D01*
X0120406Y0076367D01*
X0120406Y0078264D01*
X0119064Y0079606D01*
X0117167Y0079606D01*
X0115825Y0078264D01*
X0115908Y0078347D02*
X0069877Y0078347D01*
X0070476Y0078946D02*
X0116506Y0078946D01*
X0117105Y0079544D02*
X0070897Y0079544D01*
X0070897Y0080143D02*
X0120625Y0080143D01*
X0120625Y0079967D02*
X0121967Y0078625D01*
X0123864Y0078625D01*
X0125206Y0079967D01*
X0125206Y0081864D01*
X0123864Y0083206D01*
X0121967Y0083206D01*
X0120625Y0081864D01*
X0120625Y0079967D01*
X0121047Y0079544D02*
X0119126Y0079544D01*
X0119724Y0078946D02*
X0121646Y0078946D01*
X0120323Y0078347D02*
X0141011Y0078347D01*
X0141011Y0077749D02*
X0120406Y0077749D01*
X0120406Y0077150D02*
X0141011Y0077150D01*
X0141011Y0076552D02*
X0120406Y0076552D01*
X0119993Y0075953D02*
X0141011Y0075953D01*
X0141011Y0075355D02*
X0119394Y0075355D01*
X0116837Y0075355D02*
X0113716Y0075355D01*
X0114314Y0074756D02*
X0141011Y0074756D01*
X0141011Y0074158D02*
X0130652Y0074158D01*
X0130505Y0074304D02*
X0128526Y0074304D01*
X0127126Y0072905D01*
X0127126Y0070926D01*
X0128526Y0069526D01*
X0130505Y0069526D01*
X0131904Y0070926D01*
X0131904Y0072905D01*
X0130505Y0074304D01*
X0131250Y0073559D02*
X0141011Y0073559D01*
X0141011Y0072961D02*
X0131849Y0072961D01*
X0131904Y0072362D02*
X0141011Y0072362D01*
X0141011Y0071764D02*
X0131904Y0071764D01*
X0131904Y0071165D02*
X0141011Y0071165D01*
X0141011Y0070567D02*
X0131545Y0070567D01*
X0130947Y0069968D02*
X0141011Y0069968D01*
X0141011Y0069370D02*
X0117010Y0069370D01*
X0116664Y0069715D02*
X0114767Y0069715D01*
X0113425Y0068374D01*
X0113425Y0066476D01*
X0114767Y0065134D01*
X0116664Y0065134D01*
X0118006Y0066476D01*
X0118006Y0068374D01*
X0116664Y0069715D01*
X0117609Y0068771D02*
X0141011Y0068771D01*
X0141011Y0068173D02*
X0118006Y0068173D01*
X0118006Y0067574D02*
X0141011Y0067574D01*
X0141011Y0066976D02*
X0118006Y0066976D01*
X0117907Y0066377D02*
X0141011Y0066377D01*
X0141011Y0065779D02*
X0117308Y0065779D01*
X0116710Y0065180D02*
X0141011Y0065180D01*
X0141011Y0064581D02*
X0009815Y0064581D01*
X0009815Y0063983D02*
X0028344Y0063983D01*
X0028367Y0064006D02*
X0027025Y0062664D01*
X0027025Y0060767D01*
X0028367Y0059425D01*
X0030264Y0059425D01*
X0031606Y0060767D01*
X0031606Y0062664D01*
X0030264Y0064006D01*
X0028367Y0064006D01*
X0027745Y0063384D02*
X0009815Y0063384D01*
X0009815Y0062786D02*
X0027147Y0062786D01*
X0027025Y0062187D02*
X0009815Y0062187D01*
X0009815Y0061589D02*
X0027025Y0061589D01*
X0027025Y0060990D02*
X0009815Y0060990D01*
X0009815Y0060392D02*
X0019262Y0060392D01*
X0019526Y0060656D02*
X0018185Y0059315D01*
X0018185Y0057417D01*
X0019526Y0056075D01*
X0021424Y0056075D01*
X0022766Y0057417D01*
X0022766Y0059315D01*
X0021424Y0060656D01*
X0019526Y0060656D01*
X0018663Y0059793D02*
X0009815Y0059793D01*
X0009815Y0059195D02*
X0018185Y0059195D01*
X0018185Y0058596D02*
X0009815Y0058596D01*
X0009815Y0057998D02*
X0018185Y0057998D01*
X0018202Y0057399D02*
X0017071Y0057399D01*
X0017064Y0057406D02*
X0015167Y0057406D01*
X0013825Y0056064D01*
X0013825Y0054167D01*
X0015167Y0052825D01*
X0017064Y0052825D01*
X0018406Y0054167D01*
X0018406Y0056064D01*
X0017064Y0057406D01*
X0017669Y0056801D02*
X0018801Y0056801D01*
X0018268Y0056202D02*
X0019399Y0056202D01*
X0018406Y0055604D02*
X0039569Y0055604D01*
X0039569Y0056202D02*
X0021551Y0056202D01*
X0022149Y0056801D02*
X0039702Y0056801D01*
X0039569Y0056668D02*
X0039569Y0054689D01*
X0040969Y0053290D01*
X0042948Y0053290D01*
X0044347Y0054689D01*
X0044347Y0056668D01*
X0042948Y0058068D01*
X0040969Y0058068D01*
X0039569Y0056668D01*
X0040300Y0057399D02*
X0022748Y0057399D01*
X0022766Y0057998D02*
X0040899Y0057998D01*
X0043018Y0057998D02*
X0063994Y0057998D01*
X0063625Y0058367D02*
X0064967Y0057025D01*
X0066864Y0057025D01*
X0068206Y0058367D01*
X0068206Y0060264D01*
X0066864Y0061606D01*
X0064967Y0061606D01*
X0063625Y0060264D01*
X0063625Y0058367D01*
X0063625Y0058596D02*
X0022766Y0058596D01*
X0022766Y0059195D02*
X0063625Y0059195D01*
X0063625Y0059793D02*
X0030633Y0059793D01*
X0031231Y0060392D02*
X0063753Y0060392D01*
X0064351Y0060990D02*
X0031606Y0060990D01*
X0031606Y0061589D02*
X0064950Y0061589D01*
X0066881Y0061589D02*
X0090750Y0061589D01*
X0091348Y0062187D02*
X0031606Y0062187D01*
X0031484Y0062786D02*
X0141011Y0062786D01*
X0141011Y0063384D02*
X0030886Y0063384D01*
X0030287Y0063983D02*
X0141011Y0063983D01*
X0141011Y0062187D02*
X0093283Y0062187D01*
X0093264Y0062206D02*
X0091367Y0062206D01*
X0090025Y0060864D01*
X0090025Y0058967D01*
X0091367Y0057625D01*
X0093264Y0057625D01*
X0094606Y0058967D01*
X0094606Y0060864D01*
X0093264Y0062206D01*
X0093881Y0061589D02*
X0141011Y0061589D01*
X0141011Y0060990D02*
X0094480Y0060990D01*
X0094606Y0060392D02*
X0101553Y0060392D01*
X0101567Y0060406D02*
X0100225Y0059064D01*
X0100225Y0057167D01*
X0101567Y0055825D01*
X0103464Y0055825D01*
X0104806Y0057167D01*
X0104806Y0059064D01*
X0103464Y0060406D01*
X0101567Y0060406D01*
X0100954Y0059793D02*
X0094606Y0059793D01*
X0094606Y0059195D02*
X0100356Y0059195D01*
X0100225Y0058596D02*
X0094236Y0058596D01*
X0093637Y0057998D02*
X0100225Y0057998D01*
X0100225Y0057399D02*
X0067239Y0057399D01*
X0067837Y0057998D02*
X0090994Y0057998D01*
X0090395Y0058596D02*
X0068206Y0058596D01*
X0068206Y0059195D02*
X0090025Y0059195D01*
X0090025Y0059793D02*
X0068206Y0059793D01*
X0068078Y0060392D02*
X0090025Y0060392D01*
X0090151Y0060990D02*
X0067480Y0060990D01*
X0064592Y0057399D02*
X0043616Y0057399D01*
X0044215Y0056801D02*
X0100591Y0056801D01*
X0101189Y0056202D02*
X0044347Y0056202D01*
X0044347Y0055604D02*
X0060576Y0055604D01*
X0060578Y0055606D02*
X0059236Y0054264D01*
X0059236Y0052367D01*
X0060578Y0051025D01*
X0062476Y0051025D01*
X0063817Y0052367D01*
X0063817Y0054264D01*
X0062476Y0055606D01*
X0060578Y0055606D01*
X0059977Y0055005D02*
X0050665Y0055005D01*
X0050664Y0055006D02*
X0048767Y0055006D01*
X0047425Y0053664D01*
X0047425Y0051767D01*
X0048276Y0050915D01*
X0047425Y0050064D01*
X0047425Y0048167D01*
X0048767Y0046825D01*
X0050664Y0046825D01*
X0052006Y0048167D01*
X0052006Y0050064D01*
X0051155Y0050915D01*
X0052006Y0051767D01*
X0052006Y0053664D01*
X0050664Y0055006D01*
X0051263Y0054407D02*
X0059379Y0054407D01*
X0059236Y0053808D02*
X0051862Y0053808D01*
X0052006Y0053210D02*
X0059236Y0053210D01*
X0059236Y0052611D02*
X0052006Y0052611D01*
X0052006Y0052013D02*
X0059590Y0052013D01*
X0060189Y0051414D02*
X0051654Y0051414D01*
X0051255Y0050816D02*
X0075652Y0050816D01*
X0075625Y0050843D02*
X0076967Y0049501D01*
X0078864Y0049501D01*
X0080206Y0050843D01*
X0080206Y0052741D01*
X0078864Y0054082D01*
X0076967Y0054082D01*
X0075625Y0052741D01*
X0075625Y0050843D01*
X0075625Y0051414D02*
X0062865Y0051414D01*
X0063463Y0052013D02*
X0075625Y0052013D01*
X0075625Y0052611D02*
X0063817Y0052611D01*
X0063817Y0053210D02*
X0076094Y0053210D01*
X0076693Y0053808D02*
X0063817Y0053808D01*
X0063675Y0054407D02*
X0141011Y0054407D01*
X0141011Y0055005D02*
X0063076Y0055005D01*
X0062478Y0055604D02*
X0141011Y0055604D01*
X0141011Y0056202D02*
X0131936Y0056202D01*
X0131909Y0056175D02*
X0130011Y0056175D01*
X0128670Y0057517D01*
X0128670Y0059414D01*
X0130011Y0060756D01*
X0131909Y0060756D01*
X0133251Y0059414D01*
X0133251Y0057517D01*
X0131909Y0056175D01*
X0132535Y0056801D02*
X0141011Y0056801D01*
X0141011Y0057399D02*
X0133133Y0057399D01*
X0133251Y0057998D02*
X0141011Y0057998D01*
X0141011Y0058596D02*
X0133251Y0058596D01*
X0133251Y0059195D02*
X0141011Y0059195D01*
X0141011Y0059793D02*
X0132872Y0059793D01*
X0132273Y0060392D02*
X0141011Y0060392D01*
X0141011Y0053808D02*
X0122662Y0053808D01*
X0122064Y0054406D02*
X0123406Y0053064D01*
X0123406Y0051167D01*
X0123045Y0050806D01*
X0124755Y0050806D01*
X0126097Y0049464D01*
X0126097Y0047567D01*
X0124755Y0046225D01*
X0122857Y0046225D01*
X0121515Y0047567D01*
X0121515Y0049464D01*
X0121876Y0049825D01*
X0120167Y0049825D01*
X0118825Y0051167D01*
X0118825Y0053064D01*
X0120167Y0054406D01*
X0122064Y0054406D01*
X0123260Y0053210D02*
X0141011Y0053210D01*
X0141011Y0052611D02*
X0123406Y0052611D01*
X0123406Y0052013D02*
X0141011Y0052013D01*
X0141011Y0051414D02*
X0123406Y0051414D01*
X0123055Y0050816D02*
X0141011Y0050816D01*
X0141011Y0050217D02*
X0125344Y0050217D01*
X0125942Y0049619D02*
X0141011Y0049619D01*
X0141011Y0049020D02*
X0126097Y0049020D01*
X0126097Y0048422D02*
X0141011Y0048422D01*
X0141011Y0047823D02*
X0134047Y0047823D01*
X0133464Y0048406D02*
X0131567Y0048406D01*
X0130225Y0047064D01*
X0130225Y0045167D01*
X0131567Y0043825D01*
X0133464Y0043825D01*
X0134806Y0045167D01*
X0134806Y0047064D01*
X0133464Y0048406D01*
X0134646Y0047225D02*
X0141011Y0047225D01*
X0141011Y0046626D02*
X0134806Y0046626D01*
X0134806Y0046028D02*
X0141011Y0046028D01*
X0141011Y0045429D02*
X0134806Y0045429D01*
X0134470Y0044831D02*
X0141011Y0044831D01*
X0141011Y0044232D02*
X0133871Y0044232D01*
X0131159Y0044232D02*
X0103104Y0044232D01*
X0103104Y0043634D02*
X0141011Y0043634D01*
X0141011Y0043035D02*
X0102814Y0043035D01*
X0103104Y0043326D02*
X0101705Y0041926D01*
X0099726Y0041926D01*
X0098326Y0043326D01*
X0098326Y0045305D01*
X0099726Y0046704D01*
X0101705Y0046704D01*
X0103104Y0045305D01*
X0103104Y0043326D01*
X0102215Y0042437D02*
X0141011Y0042437D01*
X0141011Y0041838D02*
X0060833Y0041838D01*
X0060235Y0042437D02*
X0099216Y0042437D01*
X0098617Y0043035D02*
X0092238Y0043035D01*
X0092049Y0042845D02*
X0090151Y0042845D01*
X0088809Y0044187D01*
X0088809Y0046085D01*
X0090151Y0047426D01*
X0092049Y0047426D01*
X0093391Y0046085D01*
X0093391Y0044187D01*
X0092049Y0042845D01*
X0092837Y0043634D02*
X0098326Y0043634D01*
X0098326Y0044232D02*
X0093391Y0044232D01*
X0093391Y0044831D02*
X0098326Y0044831D01*
X0098451Y0045429D02*
X0093391Y0045429D01*
X0093391Y0046028D02*
X0099049Y0046028D01*
X0099648Y0046626D02*
X0092849Y0046626D01*
X0092251Y0047225D02*
X0106930Y0047225D01*
X0107453Y0046701D02*
X0106112Y0048043D01*
X0106112Y0049941D01*
X0107453Y0051282D01*
X0109351Y0051282D01*
X0110693Y0049941D01*
X0110693Y0048043D01*
X0109351Y0046701D01*
X0107453Y0046701D01*
X0106332Y0047823D02*
X0085303Y0047823D01*
X0085238Y0047758D02*
X0086579Y0049100D01*
X0086579Y0050997D01*
X0085238Y0052339D01*
X0083340Y0052339D01*
X0081998Y0050997D01*
X0081998Y0049100D01*
X0083340Y0047758D01*
X0085238Y0047758D01*
X0085902Y0048422D02*
X0106112Y0048422D01*
X0106112Y0049020D02*
X0086500Y0049020D01*
X0086579Y0049619D02*
X0106112Y0049619D01*
X0106388Y0050217D02*
X0086579Y0050217D01*
X0086579Y0050816D02*
X0106987Y0050816D01*
X0109818Y0050816D02*
X0119176Y0050816D01*
X0118825Y0051414D02*
X0086162Y0051414D01*
X0085564Y0052013D02*
X0118825Y0052013D01*
X0118825Y0052611D02*
X0080206Y0052611D01*
X0080206Y0052013D02*
X0083014Y0052013D01*
X0082415Y0051414D02*
X0080206Y0051414D01*
X0080179Y0050816D02*
X0081998Y0050816D01*
X0081998Y0050217D02*
X0079580Y0050217D01*
X0078982Y0049619D02*
X0081998Y0049619D01*
X0082078Y0049020D02*
X0052006Y0049020D01*
X0052006Y0048422D02*
X0082676Y0048422D01*
X0083275Y0047823D02*
X0051662Y0047823D01*
X0051064Y0047225D02*
X0089949Y0047225D01*
X0089351Y0046626D02*
X0009815Y0046626D01*
X0009815Y0046028D02*
X0025479Y0046028D01*
X0025967Y0046515D02*
X0024625Y0045174D01*
X0024625Y0043276D01*
X0025967Y0041934D01*
X0027864Y0041934D01*
X0029206Y0043276D01*
X0029206Y0045174D01*
X0027864Y0046515D01*
X0025967Y0046515D01*
X0024880Y0045429D02*
X0009815Y0045429D01*
X0009815Y0044831D02*
X0024625Y0044831D01*
X0024625Y0044232D02*
X0009815Y0044232D01*
X0009815Y0043634D02*
X0024625Y0043634D01*
X0024866Y0043035D02*
X0009815Y0043035D01*
X0009815Y0042437D02*
X0025464Y0042437D01*
X0028366Y0042437D02*
X0041022Y0042437D01*
X0041022Y0042129D02*
X0042364Y0040787D01*
X0044261Y0040787D01*
X0045603Y0042129D01*
X0045603Y0044026D01*
X0044261Y0045368D01*
X0042364Y0045368D01*
X0041022Y0044026D01*
X0041022Y0042129D01*
X0041313Y0041838D02*
X0009815Y0041838D01*
X0009815Y0041240D02*
X0041911Y0041240D01*
X0041022Y0043035D02*
X0028965Y0043035D01*
X0029206Y0043634D02*
X0041022Y0043634D01*
X0041227Y0044232D02*
X0029206Y0044232D01*
X0029206Y0044831D02*
X0041826Y0044831D01*
X0044799Y0044831D02*
X0088809Y0044831D01*
X0088809Y0045429D02*
X0028951Y0045429D01*
X0028352Y0046028D02*
X0088809Y0046028D01*
X0088809Y0044232D02*
X0045397Y0044232D01*
X0045603Y0043634D02*
X0089363Y0043634D01*
X0089962Y0043035D02*
X0045603Y0043035D01*
X0045603Y0042437D02*
X0058142Y0042437D01*
X0058199Y0042493D02*
X0056799Y0041094D01*
X0056799Y0039115D01*
X0058199Y0037715D01*
X0060178Y0037715D01*
X0061577Y0039115D01*
X0061577Y0041094D01*
X0060178Y0042493D01*
X0058199Y0042493D01*
X0057543Y0041838D02*
X0045312Y0041838D01*
X0044714Y0041240D02*
X0056945Y0041240D01*
X0056799Y0040641D02*
X0009815Y0040641D01*
X0009815Y0040043D02*
X0056799Y0040043D01*
X0056799Y0039444D02*
X0009815Y0039444D01*
X0009815Y0038845D02*
X0057069Y0038845D01*
X0057667Y0038247D02*
X0009815Y0038247D01*
X0009815Y0037648D02*
X0064825Y0037648D01*
X0064825Y0037050D02*
X0009815Y0037050D01*
X0009815Y0036451D02*
X0065140Y0036451D01*
X0064825Y0036767D02*
X0066167Y0035425D01*
X0068064Y0035425D01*
X0069406Y0036767D01*
X0069406Y0038664D01*
X0068064Y0040006D01*
X0066167Y0040006D01*
X0064825Y0038664D01*
X0064825Y0036767D01*
X0065739Y0035853D02*
X0009815Y0035853D01*
X0009815Y0035254D02*
X0047476Y0035254D01*
X0047526Y0035304D02*
X0046126Y0033905D01*
X0046126Y0031926D01*
X0047526Y0030526D01*
X0049505Y0030526D01*
X0050904Y0031926D01*
X0050904Y0033905D01*
X0049505Y0035304D01*
X0047526Y0035304D01*
X0046877Y0034656D02*
X0009815Y0034656D01*
X0009815Y0034057D02*
X0046279Y0034057D01*
X0046126Y0033459D02*
X0009815Y0033459D01*
X0009815Y0032860D02*
X0046126Y0032860D01*
X0046126Y0032262D02*
X0017008Y0032262D01*
X0016464Y0032806D02*
X0017806Y0031464D01*
X0017806Y0029567D01*
X0016464Y0028225D01*
X0014567Y0028225D01*
X0013225Y0029567D01*
X0013225Y0031464D01*
X0014567Y0032806D01*
X0016464Y0032806D01*
X0017607Y0031663D02*
X0024824Y0031663D01*
X0025367Y0032206D02*
X0024025Y0030864D01*
X0024025Y0028967D01*
X0025367Y0027625D01*
X0027264Y0027625D01*
X0028606Y0028967D01*
X0028606Y0030864D01*
X0027264Y0032206D01*
X0025367Y0032206D01*
X0024226Y0031065D02*
X0017806Y0031065D01*
X0017806Y0030466D02*
X0024025Y0030466D01*
X0024025Y0029868D02*
X0017806Y0029868D01*
X0017509Y0029269D02*
X0024025Y0029269D01*
X0024321Y0028671D02*
X0016910Y0028671D01*
X0014121Y0028671D02*
X0009815Y0028671D01*
X0009815Y0029269D02*
X0013522Y0029269D01*
X0013225Y0029868D02*
X0009815Y0029868D01*
X0009815Y0030466D02*
X0013225Y0030466D01*
X0013225Y0031065D02*
X0009815Y0031065D01*
X0009815Y0031663D02*
X0013424Y0031663D01*
X0014023Y0032262D02*
X0009815Y0032262D01*
X0009815Y0028072D02*
X0024919Y0028072D01*
X0027712Y0028072D02*
X0038459Y0028072D01*
X0038459Y0027733D02*
X0039801Y0026391D01*
X0041698Y0026391D01*
X0043040Y0027733D01*
X0043040Y0029630D01*
X0041698Y0030972D01*
X0039801Y0030972D01*
X0038459Y0029630D01*
X0038459Y0027733D01*
X0038718Y0027474D02*
X0009815Y0027474D01*
X0009815Y0026875D02*
X0039316Y0026875D01*
X0042182Y0026875D02*
X0052127Y0026875D01*
X0052367Y0027115D02*
X0051025Y0025774D01*
X0051025Y0023876D01*
X0051862Y0023039D01*
X0050815Y0021993D01*
X0050815Y0020095D01*
X0052157Y0018753D01*
X0054055Y0018753D01*
X0055397Y0020095D01*
X0055397Y0021993D01*
X0054559Y0022830D01*
X0055606Y0023876D01*
X0055606Y0025774D01*
X0054264Y0027115D01*
X0052367Y0027115D01*
X0051528Y0026277D02*
X0009815Y0026277D01*
X0009815Y0025678D02*
X0051025Y0025678D01*
X0051025Y0025080D02*
X0009815Y0025080D01*
X0009815Y0024481D02*
X0051025Y0024481D01*
X0051025Y0023883D02*
X0036788Y0023883D01*
X0036264Y0024406D02*
X0034367Y0024406D01*
X0033025Y0023064D01*
X0033025Y0021167D01*
X0034367Y0019825D01*
X0036264Y0019825D01*
X0037606Y0021167D01*
X0037606Y0023064D01*
X0036264Y0024406D01*
X0037386Y0023284D02*
X0051617Y0023284D01*
X0051509Y0022686D02*
X0037606Y0022686D01*
X0037606Y0022087D02*
X0050910Y0022087D01*
X0050815Y0021489D02*
X0037606Y0021489D01*
X0037329Y0020890D02*
X0050815Y0020890D01*
X0050815Y0020292D02*
X0036731Y0020292D01*
X0033900Y0020292D02*
X0009815Y0020292D01*
X0009815Y0020890D02*
X0033301Y0020890D01*
X0033025Y0021489D02*
X0009815Y0021489D01*
X0009815Y0022087D02*
X0033025Y0022087D01*
X0033025Y0022686D02*
X0009815Y0022686D01*
X0009815Y0023284D02*
X0033245Y0023284D01*
X0033843Y0023883D02*
X0009815Y0023883D01*
X0009815Y0019693D02*
X0051217Y0019693D01*
X0051816Y0019095D02*
X0009815Y0019095D01*
X0009815Y0018496D02*
X0073356Y0018496D01*
X0073926Y0017926D02*
X0075905Y0017926D01*
X0077304Y0019326D01*
X0077304Y0021305D01*
X0075905Y0022704D01*
X0073926Y0022704D01*
X0072526Y0021305D01*
X0072526Y0019326D01*
X0073926Y0017926D01*
X0072758Y0019095D02*
X0054396Y0019095D01*
X0054995Y0019693D02*
X0072526Y0019693D01*
X0072526Y0020292D02*
X0055397Y0020292D01*
X0055397Y0020890D02*
X0072526Y0020890D01*
X0072710Y0021489D02*
X0055397Y0021489D01*
X0055302Y0022087D02*
X0073309Y0022087D01*
X0073907Y0022686D02*
X0054703Y0022686D01*
X0055014Y0023284D02*
X0126025Y0023284D01*
X0126025Y0022967D02*
X0127367Y0021625D01*
X0129264Y0021625D01*
X0130606Y0022967D01*
X0130606Y0024864D01*
X0129264Y0026206D01*
X0127367Y0026206D01*
X0126025Y0024864D01*
X0126025Y0022967D01*
X0126306Y0022686D02*
X0115524Y0022686D01*
X0115505Y0022704D02*
X0113526Y0022704D01*
X0112126Y0021305D01*
X0112126Y0019326D01*
X0113526Y0017926D01*
X0115505Y0017926D01*
X0116904Y0019326D01*
X0116904Y0021305D01*
X0115505Y0022704D01*
X0116122Y0022087D02*
X0126904Y0022087D01*
X0126025Y0023883D02*
X0066890Y0023883D01*
X0066305Y0023298D02*
X0067704Y0024697D01*
X0067704Y0026676D01*
X0066305Y0028076D01*
X0064326Y0028076D01*
X0062926Y0026676D01*
X0062926Y0024697D01*
X0064326Y0023298D01*
X0066305Y0023298D01*
X0067488Y0024481D02*
X0088371Y0024481D01*
X0088926Y0023926D02*
X0090905Y0023926D01*
X0092304Y0025326D01*
X0092304Y0027305D01*
X0090905Y0028704D01*
X0088926Y0028704D01*
X0087526Y0027305D01*
X0087526Y0025326D01*
X0088926Y0023926D01*
X0087773Y0025080D02*
X0067704Y0025080D01*
X0067704Y0025678D02*
X0070374Y0025678D01*
X0070926Y0025126D02*
X0069526Y0026526D01*
X0069526Y0028505D01*
X0070926Y0029904D01*
X0072905Y0029904D01*
X0074304Y0028505D01*
X0074304Y0026526D01*
X0072905Y0025126D01*
X0070926Y0025126D01*
X0069776Y0026277D02*
X0067704Y0026277D01*
X0067505Y0026875D02*
X0069526Y0026875D01*
X0069526Y0027474D02*
X0066907Y0027474D01*
X0066308Y0028072D02*
X0069526Y0028072D01*
X0069692Y0028671D02*
X0043040Y0028671D01*
X0043040Y0029269D02*
X0070291Y0029269D01*
X0070889Y0029868D02*
X0066625Y0029868D01*
X0066494Y0029737D02*
X0064515Y0029737D01*
X0063116Y0031137D01*
X0063116Y0033116D01*
X0064515Y0034515D01*
X0066494Y0034515D01*
X0067894Y0033116D01*
X0067894Y0031137D01*
X0066494Y0029737D01*
X0067223Y0030466D02*
X0123227Y0030466D01*
X0123767Y0031006D02*
X0122425Y0029664D01*
X0122425Y0027767D01*
X0123767Y0026425D01*
X0125664Y0026425D01*
X0127006Y0027767D01*
X0127006Y0029664D01*
X0125664Y0031006D01*
X0123767Y0031006D01*
X0122629Y0029868D02*
X0072942Y0029868D01*
X0073540Y0029269D02*
X0122425Y0029269D01*
X0122425Y0028671D02*
X0098739Y0028671D01*
X0098705Y0028704D02*
X0096726Y0028704D01*
X0095326Y0027305D01*
X0095326Y0025326D01*
X0096726Y0023926D01*
X0098705Y0023926D01*
X0100104Y0025326D01*
X0100104Y0027305D01*
X0098705Y0028704D01*
X0099337Y0028072D02*
X0122425Y0028072D01*
X0122718Y0027474D02*
X0099936Y0027474D01*
X0100104Y0026875D02*
X0123316Y0026875D01*
X0126115Y0026875D02*
X0141011Y0026875D01*
X0141011Y0026277D02*
X0100104Y0026277D01*
X0100104Y0025678D02*
X0126839Y0025678D01*
X0126240Y0025080D02*
X0099858Y0025080D01*
X0099260Y0024481D02*
X0126025Y0024481D01*
X0126713Y0027474D02*
X0141011Y0027474D01*
X0141011Y0028072D02*
X0127006Y0028072D01*
X0127006Y0028671D02*
X0141011Y0028671D01*
X0141011Y0029269D02*
X0127006Y0029269D01*
X0126802Y0029868D02*
X0141011Y0029868D01*
X0141011Y0030466D02*
X0126204Y0030466D01*
X0126167Y0034225D02*
X0128064Y0034225D01*
X0129406Y0035567D01*
X0129406Y0037464D01*
X0128064Y0038806D01*
X0126167Y0038806D01*
X0124825Y0037464D01*
X0124825Y0035567D01*
X0126167Y0034225D01*
X0125736Y0034656D02*
X0050154Y0034656D01*
X0050752Y0034057D02*
X0064057Y0034057D01*
X0063459Y0033459D02*
X0050904Y0033459D01*
X0050904Y0032860D02*
X0063116Y0032860D01*
X0063116Y0032262D02*
X0050904Y0032262D01*
X0050642Y0031663D02*
X0063116Y0031663D01*
X0063188Y0031065D02*
X0050043Y0031065D01*
X0046988Y0031065D02*
X0028405Y0031065D01*
X0028606Y0030466D02*
X0039295Y0030466D01*
X0038696Y0029868D02*
X0028606Y0029868D01*
X0028606Y0029269D02*
X0038459Y0029269D01*
X0038459Y0028671D02*
X0028310Y0028671D01*
X0027807Y0031663D02*
X0046389Y0031663D01*
X0042802Y0029868D02*
X0064385Y0029868D01*
X0063786Y0030466D02*
X0042204Y0030466D01*
X0043040Y0028072D02*
X0064323Y0028072D01*
X0063724Y0027474D02*
X0042781Y0027474D01*
X0054504Y0026875D02*
X0063125Y0026875D01*
X0062926Y0026277D02*
X0055103Y0026277D01*
X0055606Y0025678D02*
X0062926Y0025678D01*
X0062926Y0025080D02*
X0055606Y0025080D01*
X0055606Y0024481D02*
X0063142Y0024481D01*
X0063741Y0023883D02*
X0055606Y0023883D01*
X0067822Y0031065D02*
X0141011Y0031065D01*
X0141011Y0031663D02*
X0067894Y0031663D01*
X0067894Y0032262D02*
X0141011Y0032262D01*
X0141011Y0032860D02*
X0067894Y0032860D01*
X0067551Y0033459D02*
X0141011Y0033459D01*
X0141011Y0034057D02*
X0066952Y0034057D01*
X0068492Y0035853D02*
X0124825Y0035853D01*
X0124825Y0036451D02*
X0107096Y0036451D01*
X0106567Y0035922D02*
X0107909Y0037264D01*
X0107909Y0039162D01*
X0106567Y0040503D01*
X0104669Y0040503D01*
X0103327Y0039162D01*
X0103327Y0037264D01*
X0104669Y0035922D01*
X0106567Y0035922D01*
X0107694Y0037050D02*
X0124825Y0037050D01*
X0125009Y0037648D02*
X0107909Y0037648D01*
X0107909Y0038247D02*
X0125608Y0038247D01*
X0128623Y0038247D02*
X0141011Y0038247D01*
X0141011Y0038845D02*
X0107909Y0038845D01*
X0107626Y0039444D02*
X0141011Y0039444D01*
X0141011Y0040043D02*
X0107028Y0040043D01*
X0104208Y0040043D02*
X0061577Y0040043D01*
X0061577Y0040641D02*
X0141011Y0040641D01*
X0141011Y0041240D02*
X0061432Y0041240D01*
X0061577Y0039444D02*
X0065605Y0039444D01*
X0065006Y0038845D02*
X0061308Y0038845D01*
X0060709Y0038247D02*
X0064825Y0038247D01*
X0068626Y0039444D02*
X0103610Y0039444D01*
X0103327Y0038845D02*
X0069225Y0038845D01*
X0069406Y0038247D02*
X0103327Y0038247D01*
X0103327Y0037648D02*
X0069406Y0037648D01*
X0069406Y0037050D02*
X0103542Y0037050D01*
X0104140Y0036451D02*
X0069091Y0036451D01*
X0074139Y0028671D02*
X0088892Y0028671D01*
X0088294Y0028072D02*
X0074304Y0028072D01*
X0074304Y0027474D02*
X0087695Y0027474D01*
X0087526Y0026875D02*
X0074304Y0026875D01*
X0074055Y0026277D02*
X0087526Y0026277D01*
X0087526Y0025678D02*
X0073457Y0025678D01*
X0075924Y0022686D02*
X0113507Y0022686D01*
X0112909Y0022087D02*
X0076522Y0022087D01*
X0077121Y0021489D02*
X0081110Y0021489D01*
X0081126Y0021504D02*
X0079726Y0020105D01*
X0079726Y0018126D01*
X0081126Y0016726D01*
X0083105Y0016726D01*
X0084504Y0018126D01*
X0084504Y0020105D01*
X0083105Y0021504D01*
X0081126Y0021504D01*
X0080512Y0020890D02*
X0077304Y0020890D01*
X0077304Y0020292D02*
X0079913Y0020292D01*
X0079726Y0019693D02*
X0077304Y0019693D01*
X0077073Y0019095D02*
X0079726Y0019095D01*
X0079726Y0018496D02*
X0076475Y0018496D01*
X0079955Y0017898D02*
X0009815Y0017898D01*
X0009815Y0017299D02*
X0080553Y0017299D01*
X0083678Y0017299D02*
X0094493Y0017299D01*
X0094967Y0016825D02*
X0096864Y0016825D01*
X0098206Y0018167D01*
X0098206Y0020064D01*
X0096864Y0021406D01*
X0094967Y0021406D01*
X0093625Y0020064D01*
X0093625Y0018167D01*
X0094967Y0016825D01*
X0093894Y0017898D02*
X0084276Y0017898D01*
X0084504Y0018496D02*
X0093625Y0018496D01*
X0093625Y0019095D02*
X0084504Y0019095D01*
X0084504Y0019693D02*
X0093625Y0019693D01*
X0093852Y0020292D02*
X0084318Y0020292D01*
X0083719Y0020890D02*
X0094451Y0020890D01*
X0097380Y0020890D02*
X0112126Y0020890D01*
X0112126Y0020292D02*
X0097979Y0020292D01*
X0098206Y0019693D02*
X0112126Y0019693D01*
X0112358Y0019095D02*
X0098206Y0019095D01*
X0098206Y0018496D02*
X0112956Y0018496D01*
X0116075Y0018496D02*
X0141011Y0018496D01*
X0141011Y0017898D02*
X0097937Y0017898D01*
X0097338Y0017299D02*
X0141011Y0017299D01*
X0141011Y0016701D02*
X0009815Y0016701D01*
X0009815Y0016102D02*
X0141011Y0016102D01*
X0141011Y0015504D02*
X0009815Y0015504D01*
X0009815Y0014905D02*
X0141011Y0014905D01*
X0141011Y0014307D02*
X0009815Y0014307D01*
X0049555Y0035254D02*
X0125137Y0035254D01*
X0128495Y0034656D02*
X0141011Y0034656D01*
X0141011Y0035254D02*
X0129094Y0035254D01*
X0129406Y0035853D02*
X0141011Y0035853D01*
X0141011Y0036451D02*
X0129406Y0036451D01*
X0129406Y0037050D02*
X0141011Y0037050D01*
X0141011Y0037648D02*
X0129222Y0037648D01*
X0130561Y0044831D02*
X0103104Y0044831D01*
X0102980Y0045429D02*
X0130225Y0045429D01*
X0130225Y0046028D02*
X0102382Y0046028D01*
X0101783Y0046626D02*
X0122456Y0046626D01*
X0121857Y0047225D02*
X0109874Y0047225D01*
X0110473Y0047823D02*
X0121515Y0047823D01*
X0121515Y0048422D02*
X0110693Y0048422D01*
X0110693Y0049020D02*
X0121515Y0049020D01*
X0121670Y0049619D02*
X0110693Y0049619D01*
X0110416Y0050217D02*
X0119774Y0050217D01*
X0118970Y0053210D02*
X0079737Y0053210D01*
X0079138Y0053808D02*
X0119569Y0053808D01*
X0126097Y0047823D02*
X0130984Y0047823D01*
X0130385Y0047225D02*
X0125755Y0047225D01*
X0125156Y0046626D02*
X0130225Y0046626D01*
X0129984Y0056202D02*
X0103842Y0056202D01*
X0104440Y0056801D02*
X0129385Y0056801D01*
X0128787Y0057399D02*
X0104806Y0057399D01*
X0104806Y0057998D02*
X0128670Y0057998D01*
X0128670Y0058596D02*
X0104806Y0058596D01*
X0104675Y0059195D02*
X0128670Y0059195D01*
X0129049Y0059793D02*
X0104077Y0059793D01*
X0103478Y0060392D02*
X0129647Y0060392D01*
X0128084Y0069968D02*
X0096302Y0069968D01*
X0095704Y0070567D02*
X0127486Y0070567D01*
X0127126Y0071165D02*
X0009815Y0071165D01*
X0009815Y0070567D02*
X0093727Y0070567D01*
X0093767Y0070606D02*
X0092425Y0069264D01*
X0092425Y0067367D01*
X0093767Y0066025D01*
X0095664Y0066025D01*
X0097006Y0067367D01*
X0097006Y0069264D01*
X0095664Y0070606D01*
X0093767Y0070606D01*
X0093129Y0069968D02*
X0009815Y0069968D01*
X0009815Y0069370D02*
X0092530Y0069370D01*
X0092425Y0068771D02*
X0009815Y0068771D01*
X0009815Y0068173D02*
X0092425Y0068173D01*
X0092425Y0067574D02*
X0009815Y0067574D01*
X0009815Y0066976D02*
X0092816Y0066976D01*
X0093415Y0066377D02*
X0009815Y0066377D01*
X0009815Y0065779D02*
X0114123Y0065779D01*
X0113524Y0066377D02*
X0096016Y0066377D01*
X0096615Y0066976D02*
X0113425Y0066976D01*
X0113425Y0067574D02*
X0097006Y0067574D01*
X0097006Y0068173D02*
X0113425Y0068173D01*
X0113822Y0068771D02*
X0097006Y0068771D01*
X0096901Y0069370D02*
X0114421Y0069370D01*
X0113064Y0071425D02*
X0111167Y0071425D01*
X0109825Y0072767D01*
X0109825Y0074664D01*
X0111167Y0076006D01*
X0113064Y0076006D01*
X0114406Y0074664D01*
X0114406Y0072767D01*
X0113064Y0071425D01*
X0113403Y0071764D02*
X0127126Y0071764D01*
X0127126Y0072362D02*
X0114001Y0072362D01*
X0114406Y0072961D02*
X0127182Y0072961D01*
X0127781Y0073559D02*
X0114406Y0073559D01*
X0114406Y0074158D02*
X0128379Y0074158D01*
X0124185Y0078946D02*
X0141011Y0078946D01*
X0141011Y0079544D02*
X0124784Y0079544D01*
X0125206Y0080143D02*
X0130510Y0080143D01*
X0130926Y0079726D02*
X0129526Y0081126D01*
X0129526Y0083105D01*
X0130926Y0084504D01*
X0132905Y0084504D01*
X0134304Y0083105D01*
X0134304Y0081126D01*
X0132905Y0079726D01*
X0130926Y0079726D01*
X0129911Y0080741D02*
X0125206Y0080741D01*
X0125206Y0081340D02*
X0129526Y0081340D01*
X0129526Y0081938D02*
X0125132Y0081938D01*
X0124533Y0082537D02*
X0129526Y0082537D01*
X0129557Y0083135D02*
X0123935Y0083135D01*
X0121896Y0083135D02*
X0116425Y0083135D01*
X0116477Y0083734D02*
X0130155Y0083734D01*
X0130754Y0084332D02*
X0116477Y0084332D01*
X0116293Y0084931D02*
X0141011Y0084931D01*
X0141011Y0085529D02*
X0116045Y0085529D01*
X0115498Y0086128D02*
X0141011Y0086128D01*
X0141011Y0086726D02*
X0114558Y0086726D01*
X0110747Y0085529D02*
X0080645Y0085529D01*
X0080893Y0084931D02*
X0110499Y0084931D01*
X0110315Y0084332D02*
X0081077Y0084332D01*
X0081077Y0083734D02*
X0110315Y0083734D01*
X0110367Y0083135D02*
X0081025Y0083135D01*
X0080778Y0082537D02*
X0110614Y0082537D01*
X0110973Y0081938D02*
X0080419Y0081938D01*
X0079820Y0081340D02*
X0111572Y0081340D01*
X0115220Y0081340D02*
X0120625Y0081340D01*
X0120625Y0080741D02*
X0070897Y0080741D01*
X0070821Y0081340D02*
X0076172Y0081340D01*
X0075573Y0081938D02*
X0070222Y0081938D01*
X0069624Y0082537D02*
X0075214Y0082537D01*
X0071364Y0087325D02*
X0103051Y0087325D01*
X0102774Y0087923D02*
X0103502Y0087923D01*
X0103225Y0088522D02*
X0103953Y0088522D01*
X0103676Y0089120D02*
X0104404Y0089120D01*
X0105306Y0090317D02*
X0105327Y0090317D01*
X0105029Y0090916D02*
X0105757Y0090916D01*
X0105480Y0091514D02*
X0106208Y0091514D01*
X0105931Y0092113D02*
X0106659Y0092113D01*
X0103190Y0093310D02*
X0086575Y0093310D01*
X0086823Y0092712D02*
X0102425Y0092712D01*
X0102330Y0087923D02*
X0072083Y0087923D01*
X0069927Y0090317D02*
X0069906Y0090317D01*
X0069132Y0090916D02*
X0068167Y0090916D01*
X0068338Y0091514D02*
X0067373Y0091514D01*
X0067544Y0092113D02*
X0066578Y0092113D01*
X0066551Y0092113D02*
X0049434Y0092113D01*
X0049434Y0092712D02*
X0067025Y0092712D01*
X0067790Y0093310D02*
X0049216Y0093310D01*
X0048968Y0093909D02*
X0081265Y0093909D01*
X0080950Y0093310D02*
X0071223Y0093310D01*
X0066254Y0091514D02*
X0049416Y0091514D01*
X0049168Y0090916D02*
X0066086Y0090916D01*
X0066025Y0090317D02*
X0048857Y0090317D01*
X0048258Y0089719D02*
X0066067Y0089719D01*
X0066215Y0089120D02*
X0047039Y0089120D01*
X0045667Y0089120D02*
X0035365Y0089120D01*
X0035451Y0089328D02*
X0035188Y0088694D01*
X0035056Y0088497D01*
X0032510Y0090401D01*
X0032162Y0089936D01*
X0034712Y0088029D01*
X0034322Y0087639D01*
X0033752Y0087258D01*
X0033119Y0086996D01*
X0032446Y0086862D01*
X0031760Y0086862D01*
X0031088Y0086996D01*
X0030454Y0087258D01*
X0030257Y0087390D01*
X0032162Y0089936D01*
X0031697Y0090284D01*
X0029789Y0087734D01*
X0029399Y0088124D01*
X0029018Y0088694D01*
X0028756Y0089328D01*
X0028622Y0090000D01*
X0028622Y0090686D01*
X0028756Y0091358D01*
X0029018Y0091992D01*
X0029150Y0092189D01*
X0031697Y0090284D01*
X0032045Y0090750D01*
X0033950Y0093296D01*
X0033752Y0093428D01*
X0033119Y0093690D01*
X0032446Y0093824D01*
X0031760Y0093824D01*
X0031088Y0093690D01*
X0030454Y0093428D01*
X0029884Y0093047D01*
X0029495Y0092657D01*
X0032045Y0090750D01*
X0032510Y0090402D01*
X0034418Y0092952D01*
X0034807Y0092562D01*
X0035188Y0091992D01*
X0035451Y0091358D01*
X0035584Y0090686D01*
X0035584Y0090000D01*
X0035451Y0089328D01*
X0035528Y0089719D02*
X0044448Y0089719D01*
X0043850Y0090317D02*
X0035584Y0090317D01*
X0035539Y0090916D02*
X0043538Y0090916D01*
X0043290Y0091514D02*
X0035386Y0091514D01*
X0035107Y0092113D02*
X0043272Y0092113D01*
X0043272Y0092712D02*
X0034658Y0092712D01*
X0034238Y0092712D02*
X0033512Y0092712D01*
X0033790Y0092113D02*
X0033065Y0092113D01*
X0033343Y0091514D02*
X0032617Y0091514D01*
X0032895Y0090916D02*
X0032169Y0090916D01*
X0031822Y0090916D02*
X0030852Y0090916D01*
X0031022Y0091514D02*
X0030052Y0091514D01*
X0030222Y0092113D02*
X0029252Y0092113D01*
X0029099Y0092113D02*
X0009815Y0092113D01*
X0009815Y0091514D02*
X0028821Y0091514D01*
X0028668Y0090916D02*
X0009815Y0090916D01*
X0009815Y0090317D02*
X0028622Y0090317D01*
X0028678Y0089719D02*
X0009815Y0089719D01*
X0009815Y0089120D02*
X0028842Y0089120D01*
X0029133Y0088522D02*
X0009815Y0088522D01*
X0009815Y0087923D02*
X0029600Y0087923D01*
X0029930Y0087923D02*
X0030656Y0087923D01*
X0030378Y0088522D02*
X0031104Y0088522D01*
X0030826Y0089120D02*
X0031552Y0089120D01*
X0031274Y0089719D02*
X0031999Y0089719D01*
X0032452Y0089719D02*
X0033422Y0089719D01*
X0033252Y0089120D02*
X0034222Y0089120D01*
X0034052Y0088522D02*
X0035023Y0088522D01*
X0035073Y0088522D02*
X0066488Y0088522D01*
X0066930Y0087923D02*
X0034607Y0087923D01*
X0033852Y0087325D02*
X0067651Y0087325D01*
X0067374Y0087923D02*
X0068102Y0087923D01*
X0067825Y0088522D02*
X0068553Y0088522D01*
X0068276Y0089120D02*
X0069004Y0089120D01*
X0081863Y0094507D02*
X0048375Y0094507D01*
X0044331Y0094507D02*
X0009815Y0094507D01*
X0009815Y0093909D02*
X0043738Y0093909D01*
X0043490Y0093310D02*
X0033929Y0093310D01*
X0030278Y0093310D02*
X0009815Y0093310D01*
X0009815Y0092712D02*
X0029549Y0092712D01*
X0031652Y0090317D02*
X0031721Y0090317D01*
X0032447Y0090317D02*
X0032622Y0090317D01*
X0030354Y0087325D02*
X0009815Y0087325D01*
X0009815Y0086726D02*
X0039205Y0086726D01*
X0038410Y0086128D02*
X0009815Y0086128D01*
X0009815Y0085529D02*
X0037924Y0085529D01*
X0037676Y0084931D02*
X0009815Y0084931D01*
X0009815Y0084332D02*
X0037534Y0084332D01*
X0037534Y0083734D02*
X0009815Y0083734D01*
X0009815Y0077150D02*
X0115825Y0077150D01*
X0115825Y0076552D02*
X0009815Y0076552D01*
X0009815Y0075953D02*
X0111114Y0075953D01*
X0110515Y0075355D02*
X0009815Y0075355D01*
X0009815Y0074756D02*
X0109917Y0074756D01*
X0109825Y0074158D02*
X0009815Y0074158D01*
X0009815Y0073559D02*
X0109825Y0073559D01*
X0109825Y0072961D02*
X0009815Y0072961D01*
X0009815Y0072362D02*
X0110229Y0072362D01*
X0110828Y0071764D02*
X0009815Y0071764D01*
X0009815Y0065180D02*
X0114721Y0065180D01*
X0116238Y0075953D02*
X0113117Y0075953D01*
X0115819Y0081938D02*
X0120699Y0081938D01*
X0121298Y0082537D02*
X0116178Y0082537D01*
X0107483Y0087923D02*
X0141011Y0087923D01*
X0141011Y0087325D02*
X0106764Y0087325D01*
X0121190Y0089719D02*
X0141011Y0089719D01*
X0141011Y0090317D02*
X0121780Y0090317D01*
X0133077Y0084332D02*
X0141011Y0084332D01*
X0141011Y0083734D02*
X0133676Y0083734D01*
X0134274Y0083135D02*
X0141011Y0083135D01*
X0141011Y0082537D02*
X0134304Y0082537D01*
X0134304Y0081938D02*
X0141011Y0081938D01*
X0141011Y0081340D02*
X0134304Y0081340D01*
X0133920Y0080741D02*
X0141011Y0080741D01*
X0141011Y0080143D02*
X0133321Y0080143D01*
X0076849Y0049619D02*
X0052006Y0049619D01*
X0051853Y0050217D02*
X0076251Y0050217D01*
X0048766Y0055005D02*
X0044347Y0055005D01*
X0044065Y0054407D02*
X0048167Y0054407D01*
X0047569Y0053808D02*
X0043466Y0053808D01*
X0042491Y0052611D02*
X0047425Y0052611D01*
X0047425Y0052013D02*
X0043090Y0052013D01*
X0043419Y0051683D02*
X0042078Y0053025D01*
X0040180Y0053025D01*
X0038838Y0051683D01*
X0038838Y0049786D01*
X0040180Y0048444D01*
X0042078Y0048444D01*
X0043419Y0049786D01*
X0043419Y0051683D01*
X0043419Y0051414D02*
X0047777Y0051414D01*
X0048176Y0050816D02*
X0043419Y0050816D01*
X0043419Y0050217D02*
X0047578Y0050217D01*
X0047425Y0049619D02*
X0043252Y0049619D01*
X0042654Y0049020D02*
X0047425Y0049020D01*
X0047425Y0048422D02*
X0009815Y0048422D01*
X0009815Y0049020D02*
X0039604Y0049020D01*
X0039005Y0049619D02*
X0025053Y0049619D01*
X0025028Y0049594D02*
X0026370Y0050935D01*
X0026370Y0052833D01*
X0025028Y0054175D01*
X0023130Y0054175D01*
X0021789Y0052833D01*
X0021789Y0050935D01*
X0023130Y0049594D01*
X0025028Y0049594D01*
X0025652Y0050217D02*
X0038838Y0050217D01*
X0038838Y0050816D02*
X0026250Y0050816D01*
X0026370Y0051414D02*
X0038838Y0051414D01*
X0039168Y0052013D02*
X0026370Y0052013D01*
X0026370Y0052611D02*
X0039766Y0052611D01*
X0040450Y0053808D02*
X0025394Y0053808D01*
X0025993Y0053210D02*
X0047425Y0053210D01*
X0039852Y0054407D02*
X0018406Y0054407D01*
X0018406Y0055005D02*
X0039569Y0055005D01*
X0047768Y0047823D02*
X0009815Y0047823D01*
X0009815Y0047225D02*
X0048367Y0047225D01*
X0027998Y0059793D02*
X0022287Y0059793D01*
X0021688Y0060392D02*
X0027400Y0060392D01*
X0022764Y0053808D02*
X0018048Y0053808D01*
X0017449Y0053210D02*
X0022165Y0053210D01*
X0021789Y0052611D02*
X0009815Y0052611D01*
X0009815Y0052013D02*
X0021789Y0052013D01*
X0021789Y0051414D02*
X0009815Y0051414D01*
X0009815Y0050816D02*
X0021908Y0050816D01*
X0022507Y0050217D02*
X0009815Y0050217D01*
X0009815Y0049619D02*
X0023105Y0049619D01*
X0014782Y0053210D02*
X0009815Y0053210D01*
X0009815Y0053808D02*
X0014183Y0053808D01*
X0013825Y0054407D02*
X0009815Y0054407D01*
X0009815Y0055005D02*
X0013825Y0055005D01*
X0013825Y0055604D02*
X0009815Y0055604D01*
X0009815Y0056202D02*
X0013963Y0056202D01*
X0014562Y0056801D02*
X0009815Y0056801D01*
X0009815Y0057399D02*
X0015160Y0057399D01*
X0083121Y0021489D02*
X0112310Y0021489D01*
X0116721Y0021489D02*
X0141011Y0021489D01*
X0141011Y0022087D02*
X0129727Y0022087D01*
X0130325Y0022686D02*
X0141011Y0022686D01*
X0141011Y0023284D02*
X0130606Y0023284D01*
X0130606Y0023883D02*
X0141011Y0023883D01*
X0141011Y0024481D02*
X0130606Y0024481D01*
X0130391Y0025080D02*
X0141011Y0025080D01*
X0141011Y0025678D02*
X0129792Y0025678D01*
X0141011Y0020890D02*
X0116904Y0020890D01*
X0116904Y0020292D02*
X0141011Y0020292D01*
X0141011Y0019693D02*
X0116904Y0019693D01*
X0116673Y0019095D02*
X0141011Y0019095D01*
X0096171Y0024481D02*
X0091460Y0024481D01*
X0092058Y0025080D02*
X0095573Y0025080D01*
X0095326Y0025678D02*
X0092304Y0025678D01*
X0092304Y0026277D02*
X0095326Y0026277D01*
X0095326Y0026875D02*
X0092304Y0026875D01*
X0092136Y0027474D02*
X0095495Y0027474D01*
X0096094Y0028072D02*
X0091537Y0028072D01*
X0090939Y0028671D02*
X0096692Y0028671D01*
D12*
X0105618Y0038213D03*
X0091100Y0045136D03*
X0084289Y0050048D03*
X0077915Y0051792D03*
X0065915Y0059315D03*
X0061527Y0053315D03*
X0049715Y0052715D03*
X0049715Y0049115D03*
X0041129Y0050734D03*
X0043312Y0043078D03*
X0032315Y0034115D03*
X0026315Y0029915D03*
X0035606Y0026865D03*
X0035315Y0022115D03*
X0040749Y0028682D03*
X0053315Y0024825D03*
X0053106Y0021044D03*
X0067115Y0037715D03*
X0095915Y0019115D03*
X0124715Y0028715D03*
X0128315Y0023915D03*
X0127115Y0036515D03*
X0132515Y0046115D03*
X0123806Y0048515D03*
X0121115Y0052115D03*
X0130960Y0058465D03*
X0136115Y0064715D03*
X0115715Y0067425D03*
X0112115Y0073715D03*
X0118115Y0077315D03*
X0122915Y0080915D03*
X0127715Y0093515D03*
X0094715Y0068315D03*
X0092315Y0059915D03*
X0102515Y0058115D03*
X0108402Y0048992D03*
X0068606Y0080315D03*
X0034115Y0080915D03*
X0029315Y0061715D03*
X0020475Y0058366D03*
X0016115Y0055115D03*
X0024079Y0051884D03*
X0026915Y0044225D03*
X0015515Y0030515D03*
D13*
X0048515Y0032915D03*
X0059188Y0040104D03*
X0065505Y0032126D03*
X0071915Y0027515D03*
X0065315Y0025687D03*
X0074915Y0020315D03*
X0082115Y0019115D03*
X0089915Y0026315D03*
X0097715Y0026315D03*
X0114515Y0020315D03*
X0100715Y0044315D03*
X0129515Y0071915D03*
X0131915Y0082115D03*
X0128915Y0086315D03*
X0041958Y0055679D03*
M02*
