G75*
%MOIN*%
%OFA0B0*%
%FSLAX25Y25*%
%IPPOS*%
%LPD*%
%AMOC8*
5,1,8,0,0,1.08239X$1,22.5*
%
%ADD10R,0.05162X0.05162*%
%ADD11C,0.03581*%
%ADD12C,0.03778*%
D10*
G36*
X0040095Y0087587D02*
X0044227Y0084495D01*
X0041135Y0080363D01*
X0037003Y0083455D01*
X0040095Y0087587D01*
G37*
G36*
X0045833Y0095783D02*
X0049965Y0092691D01*
X0046873Y0088559D01*
X0042741Y0091651D01*
X0045833Y0095783D01*
G37*
G36*
X0031583Y0093955D02*
X0035715Y0090863D01*
X0032623Y0086731D01*
X0028491Y0089823D01*
X0031583Y0093955D01*
G37*
G36*
X0069000Y0093884D02*
X0073121Y0090777D01*
X0070014Y0086656D01*
X0065893Y0089763D01*
X0069000Y0093884D01*
G37*
G36*
X0077489Y0087487D02*
X0081610Y0084380D01*
X0078503Y0080259D01*
X0074382Y0083366D01*
X0077489Y0087487D01*
G37*
G36*
X0083256Y0095663D02*
X0087377Y0092556D01*
X0084270Y0088435D01*
X0080149Y0091542D01*
X0083256Y0095663D01*
G37*
G36*
X0104400Y0093884D02*
X0108521Y0090777D01*
X0105414Y0086656D01*
X0101293Y0089763D01*
X0104400Y0093884D01*
G37*
G36*
X0112889Y0087487D02*
X0117010Y0084380D01*
X0113903Y0080259D01*
X0109782Y0083366D01*
X0112889Y0087487D01*
G37*
G36*
X0118656Y0095663D02*
X0122777Y0092556D01*
X0119670Y0088435D01*
X0115549Y0091542D01*
X0118656Y0095663D01*
G37*
D11*
X0035315Y0022115D03*
X0035606Y0026865D03*
X0040749Y0028682D03*
X0032315Y0034115D03*
X0026315Y0029915D03*
X0015515Y0030515D03*
X0026915Y0044225D03*
X0024079Y0051884D03*
X0020475Y0058366D03*
X0016115Y0055115D03*
X0029315Y0061715D03*
X0041129Y0050734D03*
X0049715Y0049115D03*
X0049715Y0052715D03*
X0061527Y0053315D03*
X0065915Y0059315D03*
X0077915Y0051792D03*
X0084289Y0050048D03*
X0091100Y0045136D03*
X0105618Y0038213D03*
X0108402Y0048992D03*
X0102515Y0058115D03*
X0092315Y0059915D03*
X0094715Y0068315D03*
X0112115Y0073715D03*
X0118115Y0077315D03*
X0122915Y0080915D03*
X0127715Y0093515D03*
X0115715Y0067425D03*
X0130960Y0058465D03*
X0136115Y0064715D03*
X0121115Y0052115D03*
X0123806Y0048515D03*
X0132515Y0046115D03*
X0127115Y0036515D03*
X0124715Y0028715D03*
X0128315Y0023915D03*
X0095915Y0019115D03*
X0067115Y0037715D03*
X0053315Y0024825D03*
X0053106Y0021044D03*
X0043312Y0043078D03*
X0068606Y0080315D03*
X0034115Y0080915D03*
D12*
X0041958Y0055679D03*
X0059188Y0040104D03*
X0065505Y0032126D03*
X0071915Y0027515D03*
X0065315Y0025687D03*
X0074915Y0020315D03*
X0082115Y0019115D03*
X0089915Y0026315D03*
X0097715Y0026315D03*
X0114515Y0020315D03*
X0100715Y0044315D03*
X0129515Y0071915D03*
X0131915Y0082115D03*
X0128915Y0086315D03*
X0048515Y0032915D03*
M02*
